<?xml version="1.0" standalone="no"?>
<!DOCTYPE svg PUBLIC "-//W3C//DTD SVG 20010904//EN"
 "http://www.w3.org/TR/2001/REC-SVG-20010904/DTD/svg10.dtd">
<svg version="1.0" xmlns="http://www.w3.org/2000/svg"
 width="512.000000pt" height="512.000000pt" viewBox="0 0 512.000000 512.000000"
 preserveAspectRatio="xMidYMid meet">
<metadata>
Created by potrace 1.14, written by Peter Selinger 2001-2017
</metadata>
<g transform="translate(0.000000,512.000000) scale(0.100000,-0.100000)"
fill="#000000" stroke="none">
<path d="M1075 4314 c-238 -32 -443 -133 -610 -299 -172 -172 -276 -393 -299
-637 -14 -143 -16 -164 -20 -183 -6 -30 -25 -164 -31 -215 -3 -25 -7 -56 -10
-70 -2 -14 -7 -52 -10 -85 -3 -33 -7 -70 -9 -81 -2 -11 -7 -58 -11 -105 -4
-46 -9 -92 -10 -101 -2 -9 -7 -54 -10 -100 -4 -46 -8 -99 -10 -118 -2 -19 -6
-78 -10 -130 -4 -52 -8 -115 -10 -140 -18 -220 -26 -792 -12 -881 33 -214 148
-386 309 -462 150 -71 380 -86 526 -34 177 62 317 194 380 357 76 198 118 303
142 355 32 69 67 149 99 220 l23 51 71 -24 c91 -31 242 -38 337 -16 210 48
388 208 465 417 l18 47 176 0 177 0 33 -80 c81 -200 259 -345 471 -387 77 -16
233 -8 302 15 37 12 71 22 76 22 16 0 184 -378 247 -555 45 -128 85 -194 168
-276 78 -77 192 -140 297 -164 82 -18 271 -13 355 10 190 52 329 185 390 373
38 118 45 204 40 512 -3 162 -7 311 -9 330 -3 19 -7 91 -11 160 -4 69 -8 141
-10 160 -2 19 -6 74 -10 121 -3 47 -8 99 -10 115 -1 16 -6 63 -10 104 -6 76
-11 126 -20 190 -3 19 -7 58 -10 85 -7 66 -10 93 -35 270 -28 199 -28 199 -35
280 -15 187 -65 330 -170 490 -136 208 -350 363 -596 431 -151 41 -352 42
-537 0 -133 -30 -310 -129 -437 -243 l-46 -43 -609 0 -609 0 -61 54 c-147 131
-322 217 -514 250 -74 13 -237 18 -301 10z m259 -165 c376 -59 676 -359 734
-734 14 -89 8 -260 -13 -340 -25 -98 -69 -198 -126 -283 l-48 -73 63 -29 c198
-92 308 -253 307 -451 -2 -433 -536 -643 -836 -328 -97 102 -135 211 -135 390
l0 99 -72 1 c-40 0 -80 2 -88 3 -8 2 -38 6 -66 10 -27 3 -85 18 -127 31 -216
71 -395 220 -502 421 -124 230 -136 515 -32 759 104 246 339 448 587 505 30 7
69 16 85 20 45 10 200 10 269 -1z m2816 -19 c389 -112 650 -448 653 -840 3
-329 -186 -643 -475 -791 -136 -69 -253 -96 -427 -98 -75 -1 -82 -3 -76 -18 5
-10 9 -61 11 -113 6 -185 -66 -331 -215 -430 -233 -157 -563 -67 -686 185 -44
90 -55 141 -51 240 4 89 28 165 77 239 51 76 109 124 228 188 l50 27 -54 86
c-120 191 -163 396 -128 612 22 139 61 237 141 357 135 201 334 326 607 379
11 2 76 3 145 1 92 -2 145 -8 200 -24z m-1138 -337 c-164 -279 -180 -653 -41
-950 l31 -65 -34 -28 c-86 -72 -132 -128 -176 -215 -47 -95 -69 -175 -71 -257
l-1 -38 -160 0 -160 0 -1 28 c-3 142 -70 298 -171 403 -35 36 -76 75 -91 87
l-28 21 29 58 c86 171 121 405 91 610 -18 114 -79 283 -133 366 l-18 27 481 0
480 0 -27 -47z m-2627 -1159 c174 -212 429 -358 679 -387 27 -4 50 -8 51 -9 2
-2 6 -28 9 -59 18 -153 72 -270 178 -382 l57 -60 -33 -66 c-18 -36 -57 -120
-85 -186 -29 -66 -59 -133 -66 -150 -7 -16 -29 -75 -49 -130 -20 -55 -48 -124
-62 -152 -96 -193 -321 -295 -538 -246 -193 44 -296 149 -347 353 -21 83 -17
575 6 900 2 30 7 91 10 135 9 123 16 207 20 245 2 19 7 67 10 105 4 39 8 81
10 95 2 14 7 52 11 84 3 33 8 67 9 75 2 9 4 20 4 26 1 5 21 -26 46 -69 24 -43
60 -98 80 -122z m4483 169 c-1 -19 10 -129 17 -173 2 -14 7 -59 10 -100 4 -41
9 -82 10 -90 2 -8 6 -62 10 -120 4 -58 9 -112 10 -121 2 -9 6 -76 10 -150 4
-74 8 -156 10 -184 2 -27 6 -174 9 -325 4 -216 2 -291 -9 -350 -42 -217 -136
-326 -326 -375 -265 -71 -514 63 -600 323 -38 115 -118 306 -210 500 l-49 103
30 26 c39 32 111 126 137 178 39 76 58 142 69 234 3 31 7 57 8 58 0 1 21 4 46
8 330 47 624 246 775 524 29 52 44 64 43 34z"/>
<path d="M960 3680 l0 -160 -160 0 -160 0 0 -240 0 -240 160 0 160 0 0 -160 0
-160 240 0 240 0 0 160 0 160 160 0 160 0 0 240 0 240 -160 0 -160 0 0 160 0
160 -240 0 -240 0 0 -160z m320 -160 l0 -160 160 0 160 0 0 -80 0 -80 -160 0
-160 0 0 -160 0 -160 -80 0 -80 0 0 160 0 160 -160 0 -160 0 0 80 0 80 160 0
160 0 0 160 0 160 80 0 80 0 0 -160z"/>
<path d="M1685 2551 c-92 -24 -173 -90 -215 -176 -20 -41 -24 -66 -24 -135 0
-101 22 -159 87 -224 66 -66 126 -90 227 -90 73 -1 92 3 136 25 65 34 89 54
123 104 144 207 9 489 -239 501 -36 2 -78 0 -95 -5z m147 -168 c41 -20 78 -75
84 -125 19 -151 -174 -238 -275 -123 -92 105 -15 269 124 263 22 -1 52 -7 67
-15z"/>
<path d="M3824 3979 c-56 -24 -110 -83 -130 -141 -43 -129 28 -267 155 -305
121 -35 244 22 293 137 21 48 18 152 -6 197 -59 111 -198 161 -312 112z m135
-149 c25 -13 45 -64 37 -95 -8 -32 -58 -58 -96 -50 -36 8 -51 26 -57 70 -8 59
62 105 116 75z"/>
<path d="M3352 3502 c-98 -39 -160 -141 -148 -245 7 -65 26 -105 73 -151 122
-118 335 -64 389 97 64 192 -127 373 -314 299z m143 -162 c23 -19 28 -65 10
-99 -18 -37 -54 -48 -96 -31 -54 23 -65 79 -24 124 21 23 32 27 60 23 20 -3
42 -10 50 -17z"/>
<path d="M4314 3504 c-83 -30 -154 -132 -154 -219 0 -215 259 -324 411 -171
111 111 78 310 -64 381 -46 23 -143 28 -193 9z m125 -154 c25 -13 45 -64 37
-95 -8 -32 -58 -58 -96 -50 -36 8 -51 26 -57 70 -8 59 62 105 116 75z"/>
<path d="M3832 3022 c-60 -24 -118 -84 -138 -144 -43 -129 28 -267 155 -305
121 -35 244 22 293 136 21 50 18 144 -6 193 -55 113 -189 165 -304 120z m127
-152 c25 -13 45 -64 37 -95 -8 -32 -58 -58 -96 -50 -36 8 -51 26 -57 70 -8 59
62 105 116 75z"/>
<path d="M3253 2541 c-87 -32 -136 -77 -182 -165 -36 -69 -37 -196 -2 -269 29
-62 92 -126 156 -157 73 -35 199 -35 270 0 63 31 123 91 155 155 35 71 35 197
0 270 -31 64 -95 128 -155 155 -69 31 -175 36 -242 11z m195 -168 c42 -31 62
-65 68 -114 14 -115 -89 -200 -203 -170 -48 13 -98 64 -108 110 -16 75 23 158
90 187 40 19 120 12 153 -13z"/>
</g>
</svg>
